<svg width="50" height="50" viewBox="0 0 50 50" fill="none" xmlns="http://www.w3.org/2000/svg">
<path d="M41.8792 27.0208L45.4917 22.9645H41.3604L39.8396 24.7041L38.2625 22.9645H30.9292V21.7354H34.7979V18.5416H24.7646V23.1854C24.1633 22.7229 23.4183 22.4869 22.6604 22.5187C21.7345 22.5108 20.8351 22.8278 20.1187 23.4145C19.5996 23.8424 19.1861 24.3842 18.9104 24.9979C18.6171 24.3355 18.1561 23.761 17.5729 23.3312C16.7488 22.7579 15.7617 22.4657 14.7583 22.4979C14.0858 22.4715 13.4157 22.5929 12.7951 22.8535C12.1746 23.1141 11.6187 23.5076 11.1667 24.0062V22.9645H7.575V21.7354H11.5042V18.5416H3.875V31.1145H7.575V26.0354H10.2208C10.1634 26.3488 10.1348 26.6668 10.1354 26.9854C10.126 27.5934 10.2404 28.1969 10.4718 28.7593C10.7032 29.3216 11.0467 29.8309 11.4813 30.2562C12.3702 31.0885 13.547 31.544 14.7646 31.527C15.722 31.5533 16.6654 31.2921 17.4729 30.777C18.0978 30.3477 18.6003 29.7633 18.9313 29.0812C19.1574 29.562 19.4655 29.9997 19.8417 30.375C20.5988 31.1318 21.6253 31.5574 22.6958 31.5583C23.4676 31.5572 24.2093 31.2588 24.7667 30.725V31.1208H38.15L39.7 29.3666L41.2625 31.1208H45.5417L41.8792 27.0208ZM14.7646 24.8C15.0229 24.7833 15.2797 24.85 15.4972 24.9903C15.7148 25.1305 15.8815 25.337 15.9729 25.5791H13.5875C13.6847 25.3474 13.8484 25.1498 14.0579 25.0111C14.2674 24.8724 14.5133 24.7989 14.7646 24.8ZM16.0354 28.2895L15.9604 28.3937C15.8466 28.6033 15.6702 28.7722 15.4558 28.8767C15.2415 28.9813 14.9998 29.0164 14.7646 28.977C14.4442 28.9647 14.1374 28.8441 13.8945 28.6348C13.6515 28.4255 13.4867 28.14 13.4271 27.825H18.5458C18.5736 27.9819 18.6076 28.1368 18.6479 28.2895H16.0354ZM23.3 28.7833C23.0902 28.7653 22.886 28.7058 22.6994 28.6082C22.5127 28.5106 22.3473 28.3769 22.2128 28.2149C22.0783 28.0528 21.9773 27.8656 21.9158 27.6642C21.8542 27.4628 21.8332 27.2512 21.8542 27.0416C21.8542 26.1062 22.3021 25.1666 23.3 25.1666C24.5896 25.1666 24.6896 26.6062 24.6896 27.0416C24.6896 27.8833 24.325 28.7833 23.3 28.7833ZM34.3063 30.6208H28.0917V19.0333H34.3063V21.2354H30.4417V23.4437H34.3063V25.5479H30.4417V28.4145H34.3063V30.6208ZM30.9313 27.9125V26.025H34.7979V23.8416L37.6375 27.0333L34.7979 30.2229V27.9312L30.9313 27.9125ZM39.7021 28.6125L37.9313 30.6125H35.0979L38.2938 27.025L35.0979 23.4416H38.0417L39.8458 25.4291L41.5812 23.4416H44.3979L41.2188 27.0166L44.4438 30.6208H41.4854L39.7021 28.6125Z" fill="#183864"/>
</svg>
