<svg width="50" height="50" viewBox="0 0 50 50" fill="none" xmlns="http://www.w3.org/2000/svg">
<path d="M45.8333 19.8751H42.2791C41.4278 21.1854 40.4555 22.4129 39.375 23.5417C38.2837 22.4219 37.3098 21.1932 36.4687 19.8751H32.877C34.1162 21.785 35.5367 23.5711 37.1187 25.2084C35.5683 26.9271 34.1504 28.7609 32.877 30.6938H36.4687C37.3081 29.3391 38.2818 28.0723 39.375 26.9126C40.4401 28.0809 41.389 29.3501 42.2083 30.7021H45.8333C44.5731 28.7621 43.161 26.9251 41.6104 25.2084C43.161 23.5487 44.5734 21.765 45.8333 19.8751ZM29.5208 21.3021C29.0787 20.7494 28.5145 20.3066 27.8726 20.0084C27.2306 19.7102 26.5284 19.5647 25.8208 19.5834C24.3478 19.6254 22.9512 20.2487 21.9363 21.3171C20.9213 22.3855 20.3705 23.8122 20.4041 25.2855C20.3721 26.7583 20.9235 28.184 21.9381 29.2521C22.9527 30.3201 24.3483 30.9439 25.8208 30.9876C26.5278 31.0051 27.2293 30.8596 27.871 30.5622C28.5126 30.2649 29.0772 29.8237 29.5208 29.273V30.698H32.3541V19.8751H29.5208V21.3021ZM26.2708 28.4834C25.6391 28.4834 25.0217 28.2961 24.4964 27.9451C23.9712 27.5942 23.5619 27.0954 23.3202 26.5118C23.0784 25.9283 23.0152 25.2861 23.1384 24.6666C23.2616 24.047 23.5658 23.478 24.0125 23.0313C24.4591 22.5847 25.0282 22.2805 25.6477 22.1573C26.2673 22.034 26.9094 22.0973 27.493 22.339C28.0766 22.5807 28.5754 22.9901 28.9263 23.5153C29.2772 24.0405 29.4645 24.658 29.4645 25.2896C29.4654 25.7093 29.3833 26.125 29.2231 26.5128C29.0629 26.9007 28.8277 27.2531 28.531 27.5498C28.2342 27.8465 27.8818 28.0818 27.494 28.242C27.1061 28.4022 26.6904 28.4842 26.2708 28.4834ZM17.05 19.5834C15.6342 19.6809 14.2926 20.2526 13.2416 21.2063C13.0462 20.7089 12.7001 20.285 12.2519 19.994C11.8036 19.703 11.2755 19.5594 10.7416 19.5834C9.33547 19.6895 8.00654 20.2681 6.97079 21.2251V19.8751H4.16663V30.7084H7.14371V23.9709C8.44371 22.9438 9.03954 22.6188 9.52704 22.6188C10.1041 22.6188 10.4833 22.9792 10.4833 23.8813V30.7021H13.4604V23.9584C14.7583 22.948 15.3354 22.623 15.8416 22.623C16.4187 22.623 16.7979 22.9834 16.7979 23.8855V30.7063H19.775V22.8355C19.775 20.398 18.3854 19.5834 17.05 19.5834ZM26.2708 22.8167C25.7809 22.813 25.301 22.9549 24.8918 23.2243C24.4827 23.4938 24.1628 23.8787 23.9728 24.3302C23.7827 24.7818 23.7311 25.2796 23.8244 25.7605C23.9177 26.2414 24.1517 26.6838 24.4968 27.0315C24.8419 27.3792 25.2825 27.6166 25.7627 27.7136C26.2429 27.8105 26.741 27.7627 27.194 27.5761C27.647 27.3895 28.0343 27.0725 28.3069 26.6655C28.5794 26.2584 28.7249 25.7795 28.725 25.2896C28.7269 24.9659 28.6649 24.645 28.5424 24.3454C28.42 24.0457 28.2396 23.7731 28.0116 23.5434C27.7836 23.3136 27.5124 23.1311 27.2137 23.0064C26.9149 22.8817 26.5945 22.8173 26.2708 22.8167Z" fill="#183864"/>
</svg>
