<svg width="50" height="50" viewBox="0 0 50 50" fill="none" xmlns="http://www.w3.org/2000/svg">
<g clip-path="url(#clip0_704_1164)">
<path d="M41.9187 38.3938C41.9187 38.9844 41.5203 39.4094 40.9468 39.4094C40.3562 39.4094 39.975 38.9578 39.975 38.3938C39.975 37.8297 40.3562 37.3782 40.9468 37.3782C41.5203 37.3782 41.9187 37.8297 41.9187 38.3938ZM14.939 37.3782C14.3219 37.3782 13.9672 37.8297 13.9672 38.3938C13.9672 38.9578 14.3234 39.4094 14.939 39.4094C15.5031 39.4094 15.8844 38.9844 15.8844 38.3938C15.875 37.8297 15.5031 37.3782 14.939 37.3782ZM25.139 37.3531C24.6703 37.3531 24.3828 37.6563 24.314 38.1078H25.9718C25.8937 37.6125 25.5906 37.3531 25.139 37.3531ZM34.4968 37.3782C33.9062 37.3782 33.5515 37.8297 33.5515 38.3938C33.5515 38.9578 33.9078 39.4094 34.4968 39.4094C35.0875 39.4094 35.4687 38.9844 35.4687 38.3938C35.4687 37.8297 35.0859 37.3782 34.4968 37.3782ZM43.689 39.6438C43.689 39.6703 43.7156 39.6875 43.7156 39.7391C43.7156 39.7656 43.689 39.7828 43.689 39.8344C43.6625 39.861 43.6625 39.8781 43.6453 39.9031C43.6187 39.9297 43.6015 39.9469 43.55 39.9469C43.5234 39.9735 43.5062 39.9735 43.4547 39.9735C43.4281 39.9735 43.4109 39.9735 43.3593 39.9469C43.3328 39.9469 43.3156 39.9203 43.2906 39.9031C43.264 39.8766 43.2468 39.8594 43.2468 39.8344C43.2203 39.7906 43.2203 39.7656 43.2203 39.7391C43.2203 39.6953 43.2203 39.6703 43.2468 39.6438C43.2468 39.6 43.2734 39.575 43.2906 39.5485C43.3172 39.5219 43.3343 39.5219 43.3593 39.5047C43.4031 39.4782 43.4281 39.4781 43.4547 39.4781C43.4984 39.4781 43.5234 39.4782 43.55 39.5047C43.5937 39.5297 43.6187 39.5297 43.6453 39.5485C43.6718 39.5672 43.6625 39.6 43.689 39.6438ZM43.4984 39.7657C43.5422 39.7657 43.5422 39.7391 43.5672 39.7391C43.5937 39.7125 43.5937 39.6953 43.5937 39.6703C43.5937 39.6453 43.5937 39.6266 43.5672 39.6016C43.5422 39.6016 43.5234 39.575 43.4719 39.575H43.3328V39.8781H43.4015V39.7563H43.4281L43.5234 39.8781H43.5922L43.4984 39.7657ZM50 9.8094V40.3657C49.9996 41.4707 49.5604 42.5304 48.779 43.3118C47.9976 44.0932 46.9379 44.5324 45.8328 44.5328H4.1656C3.06052 44.5324 2.00082 44.0932 1.21941 43.3118C0.438002 42.5304 -0.00117279 41.4707 -0.00158691 40.3657V9.8094C-0.00117279 8.70432 0.438002 7.64462 1.21941 6.86321C2.00082 6.0818 3.06052 5.64263 4.1656 5.64221H45.8328C46.9379 5.64263 47.9976 6.0818 48.779 6.86321C49.5604 7.64462 49.9996 8.70432 50 9.8094ZM5.55623 21.9266C5.55623 28.5672 10.9469 33.9485 17.5781 33.9485C19.9397 33.9417 22.2479 33.2449 24.2187 31.9438C17.8906 26.7969 17.9344 17.0828 24.2187 11.9344C22.2498 10.6291 19.9404 9.93196 17.5781 9.92971C10.9469 9.9219 5.55623 15.311 5.55623 21.9266ZM25 31.3719C31.1203 26.5969 31.0937 17.2922 25 12.4922C18.9062 17.2922 18.8797 26.6063 25 31.3719ZM12.6469 37.9953C12.6469 37.2406 12.1515 36.7453 11.3703 36.7188C10.9703 36.7188 10.5453 36.8406 10.2594 37.2828C10.0515 36.9266 9.69529 36.7188 9.19998 36.7188C9.01999 36.716 8.84206 36.7573 8.68167 36.839C8.52127 36.9207 8.38327 37.0403 8.27966 37.1875V36.8063H7.56873V39.9922H8.27966C8.27966 38.3516 8.06248 37.3703 9.06091 37.3703C9.94685 37.3703 9.77341 38.2563 9.77341 39.9922H10.4594C10.4594 38.4031 10.2422 37.3703 11.2406 37.3703C12.1265 37.3703 11.9515 38.2391 11.9515 39.9922H12.664V37.9953H12.6469ZM16.5453 36.8063H15.8594V37.1875C15.7379 37.0361 15.583 36.9149 15.4067 36.8335C15.2305 36.7522 15.0378 36.7129 14.8437 36.7188C13.95 36.7188 13.264 37.4313 13.264 38.3938C13.264 39.3657 13.95 40.0688 14.8437 40.0688C15.2953 40.0688 15.625 39.9031 15.8594 39.6V40H16.5453V36.8063ZM20.0609 39.0281C20.0609 37.7266 18.0734 38.3156 18.0734 37.7078C18.0734 37.2125 19.1062 37.2922 19.6797 37.6125L19.9656 37.0485C19.15 36.5188 17.3437 36.5282 17.3437 37.761C17.3437 39.0016 19.3312 38.4813 19.3312 39.0625C19.3312 39.6094 18.1594 39.5657 17.5344 39.1313L17.2312 39.6781C18.2031 40.3375 20.0609 40.1985 20.0609 39.0266V39.0281ZM23.1344 39.8344L22.9437 39.2438C22.614 39.425 21.8843 39.625 21.8843 38.8875V37.4469H23.0219V36.8047H21.8843V35.8328H21.1719V36.8047H20.5125V37.4391H21.1719V38.8891C21.1719 40.4172 22.6734 40.1391 23.1344 39.8344ZM24.2875 38.6719H26.675C26.675 37.2656 26.0328 36.7094 25.164 36.7094C24.2437 36.7094 23.5844 37.3953 23.5844 38.3844C23.5844 40.1641 25.5469 40.4594 26.5187 39.6172L26.189 39.0969C25.5125 39.6531 24.4875 39.6 24.2875 38.6719ZM29.4187 36.8063C29.0203 36.6328 28.4125 36.65 28.1 37.1875V36.8063H27.3875V39.9922H28.1V38.1953C28.1 37.1875 28.925 37.3188 29.2109 37.4657L29.4187 36.8063ZM30.339 38.3938C30.339 37.4032 31.3468 37.0828 32.1359 37.6641L32.4656 37.1C31.4578 36.311 29.6265 36.7438 29.6265 38.4016C29.6265 40.1203 31.5703 40.4672 32.4656 39.7031L32.1359 39.1391C31.3375 39.7032 30.339 39.3657 30.339 38.3922V38.3938ZM36.1281 36.8063H35.4156V37.1875C34.6953 36.2328 32.8203 36.7719 32.8203 38.3938C32.8203 40.061 34.764 40.5375 35.4156 39.6V40H36.1281V36.8063ZM39.0531 36.8063C38.8453 36.7016 38.0984 36.5547 37.7343 37.1875V36.8063H37.0484V39.9922H37.7343V38.1953C37.7343 37.2406 38.5156 37.3016 38.8453 37.4657L39.0531 36.8063ZM42.5515 35.5125H41.8656V37.1875C41.1531 36.2422 39.2703 36.7453 39.2703 38.3938C39.2703 40.0782 41.2234 40.5281 41.8656 39.6V40H42.5515V35.5125ZM43.2125 28.9938V29.3938H43.2812V28.9938H43.4453V28.925H43.0453V28.9938H43.2125ZM43.7843 39.7391C43.7843 39.6953 43.7844 39.6438 43.7593 39.6C43.7328 39.5735 43.7156 39.5313 43.6906 39.5047C43.6656 39.4782 43.6218 39.461 43.5953 39.436C43.5515 39.436 43.5 39.4094 43.4562 39.4094C43.4297 39.4094 43.3875 39.436 43.3343 39.436C43.3001 39.4552 43.2681 39.4783 43.239 39.5047C43.1953 39.5297 43.1703 39.5735 43.1703 39.6C43.1437 39.6438 43.1437 39.6953 43.1437 39.7391C43.1437 39.7656 43.1437 39.8078 43.1703 39.861C43.1703 39.8875 43.1968 39.9297 43.239 39.9563C43.2654 39.9859 43.2979 40.0093 43.3343 40.025C43.3781 40.05 43.4297 40.05 43.4562 40.05C43.5 40.05 43.5515 40.05 43.5953 40.025C43.6218 39.9985 43.664 39.9813 43.6906 39.9563C43.7172 39.9313 43.7343 39.8875 43.7593 39.861C43.7844 39.8094 43.7843 39.7656 43.7843 39.7391ZM44.0625 28.9156H43.9406L43.8015 29.2188L43.6625 28.9156H43.5406V29.3844H43.6093V29.0281L43.7484 29.3313H43.8437L43.9656 29.0281V29.3844H44.0609L44.0625 28.9156ZM44.4437 21.9266C44.4437 15.311 39.0531 9.9219 32.4218 9.9219C30.0601 9.92782 27.7517 10.6247 25.7812 11.9266C32.0406 17.075 32.1359 26.8141 25.7812 31.936C27.7512 33.239 30.0599 33.9359 32.4218 33.9406C39.0531 33.95 44.4437 28.5672 44.4437 21.9266Z" fill="#183864"/>
</g>
<defs>
<clipPath id="clip0_704_1164">
<rect width="50" height="50" fill="white"/>
</clipPath>
</defs>
</svg>
