<svg width="598" height="70" viewBox="0 0 598 70" fill="none" xmlns="http://www.w3.org/2000/svg">
<g clip-path="url(#clip0_704_1163)">
<path d="M51.9187 48.3938C51.9187 48.9844 51.5203 49.4094 50.9468 49.4094C50.3562 49.4094 49.975 48.9578 49.975 48.3938C49.975 47.8297 50.3562 47.3782 50.9468 47.3782C51.5203 47.3782 51.9187 47.8297 51.9187 48.3938ZM24.939 47.3782C24.3219 47.3782 23.9672 47.8297 23.9672 48.3938C23.9672 48.9578 24.3234 49.4094 24.939 49.4094C25.5031 49.4094 25.8844 48.9844 25.8844 48.3938C25.875 47.8297 25.5031 47.3782 24.939 47.3782ZM35.139 47.3531C34.6703 47.3531 34.3828 47.6563 34.314 48.1078H35.9718C35.8937 47.6125 35.5906 47.3531 35.139 47.3531ZM44.4968 47.3782C43.9062 47.3782 43.5515 47.8297 43.5515 48.3938C43.5515 48.9578 43.9078 49.4094 44.4968 49.4094C45.0875 49.4094 45.4687 48.9844 45.4687 48.3938C45.4687 47.8297 45.0859 47.3782 44.4968 47.3782ZM53.689 49.6438C53.689 49.6703 53.7156 49.6875 53.7156 49.7391C53.7156 49.7656 53.689 49.7828 53.689 49.8344C53.6625 49.861 53.6625 49.8781 53.6453 49.9031C53.6187 49.9297 53.6015 49.9469 53.55 49.9469C53.5234 49.9735 53.5062 49.9735 53.4547 49.9735C53.4281 49.9735 53.4109 49.9735 53.3593 49.9469C53.3328 49.9469 53.3156 49.9203 53.2906 49.9031C53.264 49.8766 53.2468 49.8594 53.2468 49.8344C53.2203 49.7906 53.2203 49.7656 53.2203 49.7391C53.2203 49.6953 53.2203 49.6703 53.2468 49.6438C53.2468 49.6 53.2734 49.575 53.2906 49.5485C53.3172 49.5219 53.3343 49.5219 53.3593 49.5047C53.4031 49.4782 53.4281 49.4781 53.4547 49.4781C53.4984 49.4781 53.5234 49.4782 53.55 49.5047C53.5937 49.5297 53.6187 49.5297 53.6453 49.5485C53.6718 49.5672 53.6625 49.6 53.689 49.6438ZM53.4984 49.7657C53.5422 49.7657 53.5422 49.7391 53.5672 49.7391C53.5937 49.7125 53.5937 49.6953 53.5937 49.6703C53.5937 49.6453 53.5937 49.6266 53.5672 49.6016C53.5422 49.6016 53.5234 49.575 53.4719 49.575H53.3328V49.8781H53.4015V49.7563H53.4281L53.5234 49.8781H53.5922L53.4984 49.7657ZM60 19.8094V50.3657C59.9996 51.4707 59.5604 52.5304 58.779 53.3118C57.9976 54.0932 56.9379 54.5324 55.8328 54.5328H14.1656C13.0605 54.5324 12.0008 54.0932 11.2194 53.3118C10.438 52.5304 9.99883 51.4707 9.99841 50.3657V19.8094C9.99883 18.7043 10.438 17.6446 11.2194 16.8632C12.0008 16.0818 13.0605 15.6426 14.1656 15.6422H55.8328C56.9379 15.6426 57.9976 16.0818 58.779 16.8632C59.5604 17.6446 59.9996 18.7043 60 19.8094ZM15.5562 31.9266C15.5562 38.5672 20.9469 43.9485 27.5781 43.9485C29.9397 43.9417 32.2479 43.2449 34.2187 41.9438C27.8906 36.7969 27.9344 27.0828 34.2187 21.9344C32.2498 20.6291 29.9404 19.932 27.5781 19.9297C20.9469 19.9219 15.5562 25.311 15.5562 31.9266ZM35 41.3719C41.1203 36.5969 41.0937 27.2922 35 22.4922C28.9062 27.2922 28.8797 36.6063 35 41.3719ZM22.6469 47.9953C22.6469 47.2406 22.1515 46.7453 21.3703 46.7188C20.9703 46.7188 20.5453 46.8406 20.2594 47.2828C20.0515 46.9266 19.6953 46.7188 19.2 46.7188C19.02 46.716 18.8421 46.7573 18.6817 46.839C18.5213 46.9207 18.3833 47.0403 18.2797 47.1875V46.8063H17.5687V49.9922H18.2797C18.2797 48.3516 18.0625 47.3703 19.0609 47.3703C19.9469 47.3703 19.7734 48.2563 19.7734 49.9922H20.4594C20.4594 48.4031 20.2422 47.3703 21.2406 47.3703C22.1265 47.3703 21.9515 48.2391 21.9515 49.9922H22.664V47.9953H22.6469ZM26.5453 46.8063H25.8594V47.1875C25.7379 47.0361 25.583 46.9149 25.4067 46.8335C25.2305 46.7522 25.0378 46.7129 24.8437 46.7188C23.95 46.7188 23.264 47.4313 23.264 48.3938C23.264 49.3657 23.95 50.0688 24.8437 50.0688C25.2953 50.0688 25.625 49.9031 25.8594 49.6V50H26.5453V46.8063ZM30.0609 49.0281C30.0609 47.7266 28.0734 48.3156 28.0734 47.7078C28.0734 47.2125 29.1062 47.2922 29.6797 47.6125L29.9656 47.0485C29.15 46.5188 27.3437 46.5282 27.3437 47.761C27.3437 49.0016 29.3312 48.4813 29.3312 49.0625C29.3312 49.6094 28.1594 49.5657 27.5344 49.1313L27.2312 49.6781C28.2031 50.3375 30.0609 50.1985 30.0609 49.0266V49.0281ZM33.1344 49.8344L32.9437 49.2438C32.614 49.425 31.8843 49.625 31.8843 48.8875V47.4469H33.0219V46.8047H31.8843V45.8328H31.1719V46.8047H30.5125V47.4391H31.1719V48.8891C31.1719 50.4172 32.6734 50.1391 33.1344 49.8344ZM34.2875 48.6719H36.675C36.675 47.2656 36.0328 46.7094 35.164 46.7094C34.2437 46.7094 33.5844 47.3953 33.5844 48.3844C33.5844 50.1641 35.5469 50.4594 36.5187 49.6172L36.189 49.0969C35.5125 49.6531 34.4875 49.6 34.2875 48.6719ZM39.4187 46.8063C39.0203 46.6328 38.4125 46.65 38.1 47.1875V46.8063H37.3875V49.9922H38.1V48.1953C38.1 47.1875 38.925 47.3188 39.2109 47.4657L39.4187 46.8063ZM40.339 48.3938C40.339 47.4032 41.3468 47.0828 42.1359 47.6641L42.4656 47.1C41.4578 46.311 39.6265 46.7438 39.6265 48.4016C39.6265 50.1203 41.5703 50.4672 42.4656 49.7031L42.1359 49.1391C41.3375 49.7032 40.339 49.3657 40.339 48.3922V48.3938ZM46.1281 46.8063H45.4156V47.1875C44.6953 46.2328 42.8203 46.7719 42.8203 48.3938C42.8203 50.061 44.764 50.5375 45.4156 49.6V50H46.1281V46.8063ZM49.0531 46.8063C48.8453 46.7016 48.0984 46.5547 47.7343 47.1875V46.8063H47.0484V49.9922H47.7343V48.1953C47.7343 47.2406 48.5156 47.3016 48.8453 47.4657L49.0531 46.8063ZM52.5515 45.5125H51.8656V47.1875C51.1531 46.2422 49.2703 46.7453 49.2703 48.3938C49.2703 50.0782 51.2234 50.5281 51.8656 49.6V50H52.5515V45.5125ZM53.2125 38.9938V39.3938H53.2812V38.9938H53.4453V38.925H53.0453V38.9938H53.2125ZM53.7843 49.7391C53.7843 49.6953 53.7844 49.6438 53.7593 49.6C53.7328 49.5735 53.7156 49.5313 53.6906 49.5047C53.6656 49.4782 53.6218 49.461 53.5953 49.436C53.5515 49.436 53.5 49.4094 53.4562 49.4094C53.4297 49.4094 53.3875 49.436 53.3343 49.436C53.3001 49.4552 53.2681 49.4783 53.239 49.5047C53.1953 49.5297 53.1703 49.5735 53.1703 49.6C53.1437 49.6438 53.1437 49.6953 53.1437 49.7391C53.1437 49.7656 53.1437 49.8078 53.1703 49.861C53.1703 49.8875 53.1968 49.9297 53.239 49.9563C53.2654 49.9859 53.2979 50.0093 53.3343 50.025C53.3781 50.05 53.4297 50.05 53.4562 50.05C53.5 50.05 53.5515 50.05 53.5953 50.025C53.6218 49.9985 53.664 49.9813 53.6906 49.9563C53.7172 49.9313 53.7343 49.8875 53.7593 49.861C53.7844 49.8094 53.7843 49.7656 53.7843 49.7391ZM54.0625 38.9156H53.9406L53.8015 39.2188L53.6625 38.9156H53.5406V39.3844H53.6093V39.0281L53.7484 39.3313H53.8437L53.9656 39.0281V39.3844H54.0609L54.0625 38.9156ZM54.4437 31.9266C54.4437 25.311 49.0531 19.9219 42.4218 19.9219C40.0601 19.9278 37.7517 20.6247 35.7812 21.9266C42.0406 27.075 42.1359 36.8141 35.7812 41.936C37.7512 43.239 40.0599 43.9359 42.4218 43.9406C49.0531 43.95 54.4437 38.5672 54.4437 31.9266Z" fill="#183864"/>
</g>
<path d="M145.833 29.8751H142.279C141.428 31.1854 140.455 32.4129 139.375 33.5417C138.284 32.4219 137.31 31.1932 136.469 29.8751H132.877C134.116 31.785 135.537 33.5711 137.119 35.2084C135.568 36.9271 134.15 38.7609 132.877 40.6938H136.469C137.308 39.3391 138.282 38.0723 139.375 36.9126C140.44 38.0809 141.389 39.3501 142.208 40.7021H145.833C144.573 38.7621 143.161 36.9251 141.61 35.2084C143.161 33.5487 144.573 31.765 145.833 29.8751ZM129.521 31.3021C129.079 30.7494 128.515 30.3066 127.873 30.0084C127.231 29.7102 126.528 29.5647 125.821 29.5834C124.348 29.6254 122.951 30.2487 121.936 31.3171C120.921 32.3855 120.37 33.8122 120.404 35.2855C120.372 36.7583 120.924 38.184 121.938 39.2521C122.953 40.3201 124.348 40.9439 125.821 40.9876C126.528 41.0051 127.229 40.8596 127.871 40.5622C128.513 40.2649 129.077 39.8237 129.521 39.273V40.698H132.354V29.8751H129.521V31.3021ZM126.271 38.4834C125.639 38.4834 125.022 38.2961 124.496 37.9451C123.971 37.5942 123.562 37.0954 123.32 36.5118C123.078 35.9283 123.015 35.2861 123.138 34.6666C123.262 34.047 123.566 33.478 124.012 33.0313C124.459 32.5847 125.028 32.2805 125.648 32.1573C126.267 32.034 126.909 32.0973 127.493 32.339C128.077 32.5807 128.575 32.9901 128.926 33.5153C129.277 34.0405 129.465 34.658 129.465 35.2896C129.465 35.7093 129.383 36.125 129.223 36.5128C129.063 36.9007 128.828 37.2531 128.531 37.5498C128.234 37.8465 127.882 38.0818 127.494 38.242C127.106 38.4022 126.69 38.4842 126.271 38.4834ZM117.05 29.5834C115.634 29.6809 114.293 30.2526 113.242 31.2063C113.046 30.7089 112.7 30.285 112.252 29.994C111.804 29.703 111.276 29.5594 110.742 29.5834C109.335 29.6895 108.007 30.2681 106.971 31.2251V29.8751H104.167V40.7084H107.144V33.9709C108.444 32.9438 109.04 32.6188 109.527 32.6188C110.104 32.6188 110.483 32.9792 110.483 33.8813V40.7021H113.46V33.9584C114.758 32.948 115.335 32.623 115.842 32.623C116.419 32.623 116.798 32.9834 116.798 33.8855V40.7063H119.775V32.8355C119.775 30.398 118.385 29.5834 117.05 29.5834ZM126.271 32.8167C125.781 32.813 125.301 32.9549 124.892 33.2243C124.483 33.4938 124.163 33.8787 123.973 34.3302C123.783 34.7818 123.731 35.2796 123.824 35.7605C123.918 36.2414 124.152 36.6838 124.497 37.0315C124.842 37.3792 125.282 37.6166 125.763 37.7136C126.243 37.8105 126.741 37.7627 127.194 37.5761C127.647 37.3895 128.034 37.0725 128.307 36.6655C128.579 36.2584 128.725 35.7795 128.725 35.2896C128.727 34.9659 128.665 34.645 128.542 34.3454C128.42 34.0457 128.24 33.7731 128.012 33.5434C127.784 33.3136 127.512 33.1311 127.214 33.0064C126.915 32.8817 126.595 32.8173 126.271 32.8167Z" fill="#183864"/>
<path d="M208.983 27.2125L202.437 42.8292H198.167L194.946 30.3646C194.75 29.598 194.581 29.3167 193.985 28.9938C193.015 28.4667 191.41 27.973 190 27.6646L190.096 27.2125H196.971C197.42 27.2121 197.855 27.3723 198.196 27.6641C198.538 27.956 198.764 28.3604 198.833 28.8042L200.535 37.8417L204.74 27.2125H208.983ZM225.719 37.7313C225.735 33.6084 220.019 33.3813 220.058 31.5396C220.071 30.9792 220.604 30.3834 221.771 30.2313C223.138 30.1014 224.515 30.3433 225.756 30.9313L226.465 27.6188C225.256 27.1642 223.976 26.9293 222.685 26.925C218.692 26.925 215.881 29.05 215.856 32.0896C215.831 34.3375 217.862 35.5896 219.394 36.3396C220.969 37.1042 221.498 37.5959 221.49 38.2792C221.479 39.3292 220.235 39.7896 219.073 39.8084C217.042 39.8396 215.865 39.2605 214.923 38.823L214.192 42.2438C215.135 42.6771 216.877 43.0563 218.683 43.073C222.927 43.073 225.704 40.9771 225.719 37.7313ZM236.262 42.8292H240L236.74 27.2125H233.29C232.921 27.2083 232.559 27.3153 232.252 27.5198C231.945 27.7242 231.707 28.0165 231.569 28.3584L225.508 42.8292H229.75L230.594 40.4959H235.777L236.262 42.8292ZM231.756 37.2959L233.881 31.4313L235.106 37.2959H231.756ZM214.756 27.2125L211.417 42.8292H207.375L210.719 27.2125H214.756Z" fill="#183864"/>
<path d="M321.879 37.0208L325.492 32.9645H321.36L319.84 34.7041L318.263 32.9645H310.929V31.7354H314.798V28.5416H304.765V33.1854C304.163 32.7229 303.418 32.4869 302.66 32.5187C301.734 32.5108 300.835 32.8278 300.119 33.4145C299.6 33.8424 299.186 34.3842 298.91 34.9979C298.617 34.3355 298.156 33.761 297.573 33.3312C296.749 32.7579 295.762 32.4657 294.758 32.4979C294.086 32.4715 293.416 32.5929 292.795 32.8535C292.175 33.1141 291.619 33.5076 291.167 34.0062V32.9645H287.575V31.7354H291.504V28.5416H283.875V41.1145H287.575V36.0354H290.221C290.163 36.3488 290.135 36.6668 290.135 36.9854C290.126 37.5934 290.24 38.1969 290.472 38.7593C290.703 39.3216 291.047 39.8309 291.481 40.2562C292.37 41.0885 293.547 41.544 294.765 41.527C295.722 41.5533 296.665 41.2921 297.473 40.777C298.098 40.3477 298.6 39.7633 298.931 39.0812C299.157 39.562 299.466 39.9997 299.842 40.375C300.599 41.1318 301.625 41.5574 302.696 41.5583C303.468 41.5572 304.209 41.2588 304.767 40.725V41.1208H318.15L319.7 39.3666L321.263 41.1208H325.542L321.879 37.0208ZM294.765 34.8C295.023 34.7833 295.28 34.85 295.497 34.9903C295.715 35.1305 295.882 35.337 295.973 35.5791H293.588C293.685 35.3474 293.848 35.1498 294.058 35.0111C294.267 34.8724 294.513 34.7989 294.765 34.8ZM296.035 38.2895L295.96 38.3937C295.847 38.6033 295.67 38.7722 295.456 38.8767C295.241 38.9813 295 39.0164 294.765 38.977C294.444 38.9647 294.137 38.8441 293.894 38.6348C293.652 38.4255 293.487 38.14 293.427 37.825H298.546C298.574 37.9819 298.608 38.1368 298.648 38.2895H296.035ZM303.3 38.7833C303.09 38.7653 302.886 38.7058 302.699 38.6082C302.513 38.5106 302.347 38.3769 302.213 38.2149C302.078 38.0528 301.977 37.8656 301.916 37.6642C301.854 37.4628 301.833 37.2512 301.854 37.0416C301.854 36.1062 302.302 35.1666 303.3 35.1666C304.59 35.1666 304.69 36.6062 304.69 37.0416C304.69 37.8833 304.325 38.7833 303.3 38.7833ZM314.306 40.6208H308.092V29.0333H314.306V31.2354H310.442V33.4437H314.306V35.5479H310.442V38.4145H314.306V40.6208ZM310.931 37.9125V36.025H314.798V33.8416L317.638 37.0333L314.798 40.2229V37.9312L310.931 37.9125ZM319.702 38.6125L317.931 40.6125H315.098L318.294 37.025L315.098 33.4416H318.042L319.846 35.4291L321.581 33.4416H324.398L321.219 37.0166L324.444 40.6208H321.485L319.702 38.6125Z" fill="#183864"/>
<path d="M378.797 30.3125L377.203 32.4844H385.906C386.344 32.4844 386.334 32.6562 386.116 32.9469C385.897 33.2437 385.533 33.7578 385.314 34.0547C385.205 34.2109 384.991 34.4844 385.67 34.4844H389.236C389.236 34.4844 389.803 33.7031 390.288 33.0469C390.944 32.1562 390.344 30.3125 388.008 30.3125H378.797ZM393.803 30.3125L390.734 34.4844H401.953L405.02 30.3125H400.438L398.68 32.7031H396.633L398.391 30.3125H393.803ZM406.523 30.3125L403.453 34.4844H408.312L411.381 30.3125H406.523ZM379.758 33.0312L376.545 37.3906H384.367C386.953 37.3906 388.391 35.6344 388.836 35.025H383.508C382.828 35.025 383.039 34.7437 383.148 34.5937C383.367 34.2969 383.742 33.7812 383.961 33.4922C384.18 33.2031 384.18 33.0312 383.742 33.0312H379.758ZM370 35.025V35.525H377.078L377.447 35.025H370ZM390.337 35.025L388.594 37.3844H393.181L394.92 35.025H390.337ZM396.978 35.025C396.97 35.025 395.234 37.3844 395.234 37.3844H399.822L401.561 35.025H396.978ZM403.053 35.025C403.053 35.025 402.72 35.4828 402.556 35.7016C401.978 36.4828 402.483 37.3891 404.366 37.3891H411.736L413.475 35.025H403.053ZM414.32 35.025L413.955 35.525H420V35.025H414.32ZM370 35.9516V36.4516H376.391L376.756 35.9516H370ZM413.634 35.9516L413.264 36.4516H420V35.9516H413.634ZM370 36.8828V37.3828H375.709L376.08 36.8828H370ZM412.944 36.8922L412.578 37.3891H420V36.8922H412.944Z" fill="#183864"/>
<defs>
<clipPath id="clip0_704_1163">
<rect width="50" height="50" fill="white" transform="translate(10 10)"/>
</clipPath>
</defs>
</svg>
