<svg width="50" height="50" viewBox="0 0 50 50" fill="none" xmlns="http://www.w3.org/2000/svg">
<path d="M8.79688 20.3125L7.20312 22.4844H15.9062C16.3438 22.4844 16.3344 22.6562 16.1156 22.9469C15.8969 23.2437 15.5328 23.7578 15.3141 24.0547C15.2047 24.2109 14.9906 24.4844 15.6703 24.4844H19.2359C19.2359 24.4844 19.8031 23.7031 20.2875 23.0469C20.9438 22.1562 20.3438 20.3125 18.0078 20.3125H8.79688ZM23.8031 20.3125L20.7344 24.4844H31.9531L35.0203 20.3125H30.4375L28.6797 22.7031H26.6328L28.3906 20.3125H23.8031ZM36.5234 20.3125L33.4531 24.4844H38.3125L41.3812 20.3125H36.5234ZM9.75781 23.0312L6.54531 27.3906H14.3672C16.9531 27.3906 18.3906 25.6344 18.8359 25.025H13.5078C12.8281 25.025 13.0391 24.7437 13.1484 24.5937C13.3672 24.2969 13.7422 23.7812 13.9609 23.4922C14.1797 23.2031 14.1797 23.0312 13.7422 23.0312H9.75781ZM0 25.025V25.525H7.07813L7.44687 25.025H0ZM20.3375 25.025L18.5938 27.3844H23.1813L24.9203 25.025H20.3375ZM26.9781 25.025C26.9703 25.025 25.2344 27.3844 25.2344 27.3844H29.8219L31.5609 25.025H26.9781ZM33.0531 25.025C33.0531 25.025 32.7203 25.4828 32.5563 25.7016C31.9781 26.4828 32.4828 27.3891 34.3656 27.3891H41.7359L43.475 25.025H33.0531ZM44.3203 25.025L43.9547 25.525H50V25.025H44.3203ZM0 25.9516V26.4516H6.39062L6.75625 25.9516H0ZM43.6344 25.9516L43.2641 26.4516H50V25.9516H43.6344ZM0 26.8828V27.3828H5.70937L6.07969 26.8828H0ZM42.9437 26.8922L42.5781 27.3891H50V26.8922H42.9437Z" fill="#183864"/>
</svg>
