<svg className="fill-current text-white" width="160" height="41" viewBox="0 0 160 41" fill="none" xmlns="http://www.w3.org/2000/svg">
<path d="M74.1442 2.4004C76.5122 4.70497 79.5261 5.66521 79.5261 4.0328C79.4184 2.30437 76.4046 -0.000201702 74.1442 -0.000201702H71.6685L74.1442 2.4004Z" fill="#FAFAFA"/>
<path d="M153.473 3.82948C154.119 6.03802 154.334 6.13405 157.133 4.78971C158.64 4.02152 159.178 4.11755 159.178 4.88574C159.178 5.5579 159.501 5.84597 159.824 5.46188C160.577 4.78971 158.748 1.71695 157.456 1.71695C157.025 1.71695 156.272 2.58117 155.841 3.5414C155.088 5.17381 154.98 5.17381 154.98 3.5414C154.873 2.67719 154.442 1.909 153.904 1.909C153.366 1.909 153.15 2.77321 153.473 3.82948Z" fill="#FAFAFA"/>
<path d="M2.02689 7.58444C-0.556419 9.40889 -0.556419 9.50492 1.38106 11.4254C3.10326 13.0578 3.31854 14.7862 2.88799 26.6932L2.56508 40.1365L6.22476 40.0405L9.77681 39.9444L9.34626 30.5341C9.13098 25.3488 9.23862 21.1238 9.56153 21.1238C9.88444 21.1238 11.499 23.3323 13.1136 25.925C14.8358 28.6136 16.3427 30.7262 16.558 30.7262C16.6656 30.7262 18.3878 28.5176 20.3253 25.925C22.2628 23.2363 23.985 21.1238 24.3079 21.1238C24.6308 21.1238 24.7385 25.3488 24.4155 30.5341L23.8774 39.9444H27.537H31.0891V24.8687C31.0891 16.5146 31.412 9.12082 31.7349 8.25661C32.2731 7.10432 31.7349 6.72023 29.9051 6.72023C27.8599 6.81625 26.1377 8.44865 22.1551 14.018L16.8809 21.2198L12.5754 15.6504C10.2074 12.6737 7.73169 9.12082 7.08586 7.96854C5.79421 5.27987 5.4713 5.27987 2.02689 7.58444Z" fill="#FAFAFA"/>
<path d="M126.671 9.88954C117.953 22.3727 120.644 38.0246 131.838 39.9451C134.098 40.3292 136.574 39.9451 138.619 39.0808C140.987 38.0246 141.956 37.9286 141.956 38.6967C141.956 39.3689 143.248 39.849 144.97 39.9451L147.876 40.0411V23.3329V6.72075H144.432H140.88V19.684C140.88 32.5512 140.88 32.7433 138.296 33.7035C127.748 38.0246 124.303 22.8528 133.345 11.5219L135.498 8.83328L132.807 7.29689C131.407 6.43268 130.008 5.76051 129.9 5.76051C129.685 5.76051 128.286 7.58496 126.671 9.88954Z" fill="#FAFAFA"/>
<path d="M42.6066 15.3635C40.4538 21.6051 39.1622 24.0057 37.9781 24.0057C36.4712 24.0057 36.2559 24.7739 36.7941 28.0387C37.2247 30.5353 36.7941 33.32 35.8254 35.4325C34.9643 37.257 34.4261 38.7934 34.5337 38.8894C34.749 38.9854 36.2559 39.5616 38.0858 40.0417L41.3149 41.0019L42.9295 35.2405L44.544 29.4791L49.9259 29.383C54.4467 29.383 55.3078 29.5751 55.6307 31.2075C55.846 32.2638 56.4918 34.7604 57.03 36.6809C57.9988 40.0417 58.4293 40.3298 61.7661 40.3298C63.8112 40.3298 65.5334 40.2337 65.5334 40.0417C65.5334 39.8496 64.1341 36.2968 62.5196 32.0717C60.7973 27.9427 58.214 20.4528 56.9224 15.5556L54.3391 6.72137H49.9259H45.5128L42.6066 15.3635ZM51.8634 18.4363L53.478 24.0057H49.7107C46.6968 24.0057 46.1586 23.7176 46.5892 22.2773C46.9121 21.413 47.6655 18.7244 48.3114 16.4198C48.9572 14.2112 49.7107 12.4828 49.9259 12.5788C50.1412 12.7709 51.0023 15.4596 51.8634 18.4363Z" fill="#FAFAFA"/>
<path d="M68.5478 13.4413C68.7631 17.8584 68.5478 20.163 67.7944 20.163C67.1485 20.163 66.6104 21.4113 66.6104 23.0437C66.6104 24.5801 67.1485 25.9244 67.7944 25.9244C68.4402 25.9244 68.8707 28.421 68.6555 32.7421L68.4402 39.4638L78.7734 39.6558L89.2143 39.8479V36.9671V34.0864L82.2178 34.3745L75.2214 34.7586V29.7653V24.6761L80.6033 25.3482L85.9852 26.0204V23.0437C85.9852 20.259 85.8775 20.163 80.6033 20.163H75.2214V15.7459V11.2327L81.6796 11.8089L88.1379 12.481V9.60033V6.71961H78.2352H68.2249L68.5478 13.4413Z" fill="#FAFAFA"/>
<path d="M92.4429 23.3317V39.8479L100.839 39.5598C105.359 39.2717 110.418 38.5035 112.033 37.8314C120.106 34.0864 120.321 20.0669 112.571 12.6731C108.912 9.12021 102.669 6.71961 97.2866 6.71961H92.4429V23.3317ZM104.929 14.3055C110.957 17.5703 113.432 25.1562 110.203 30.6296C108.481 33.7023 106.651 34.5665 102.023 34.5665H98.9012V23.5238C98.9012 11.4248 99.1165 11.1367 104.929 14.3055Z" fill="#FAFAFA"/>
</svg>
