<svg width="30" height="21" viewBox="0 0 30 21" fill="none" xmlns="http://www.w3.org/2000/svg">
<path d="M1.66642 20.5H28.3331C29.2498 20.5 29.9998 19.75 29.9998 18.8333C29.9998 17.9167 29.2498 17.1667 28.3331 17.1667H1.66642C0.749756 17.1667 -0.000244141 17.9167 -0.000244141 18.8333C-0.000244141 19.75 0.749756 20.5 1.66642 20.5ZM1.66642 12.1667H28.3331C29.2498 12.1667 29.9998 11.4167 29.9998 10.5C29.9998 9.58333 29.2498 8.83333 28.3331 8.83333H1.66642C0.749756 8.83333 -0.000244141 9.58333 -0.000244141 10.5C-0.000244141 11.4167 0.749756 12.1667 1.66642 12.1667ZM-0.000244141 2.16667C-0.000244141 3.08333 0.749756 3.83333 1.66642 3.83333H28.3331C29.2498 3.83333 29.9998 3.08333 29.9998 2.16667C29.9998 1.25 29.2498 0.5 28.3331 0.5H1.66642C0.749756 0.5 -0.000244141 1.25 -0.000244141 2.16667Z" fill="#FCFCFC"/>
</svg>
