<svg width="50" height="50" viewBox="0 0 50 50" fill="none" xmlns="http://www.w3.org/2000/svg">
<path d="M18.9833 17.2125L12.4375 32.8292H8.16667L4.94583 20.3646C4.75 19.598 4.58125 19.3167 3.98542 18.9938C3.01458 18.4667 1.41042 17.973 0 17.6646L0.0958333 17.2125H6.97083C7.4201 17.2121 7.85473 17.3723 8.19627 17.6641C8.53781 17.956 8.76376 18.3604 8.83333 18.8042L10.5354 27.8417L14.7396 17.2125H18.9833ZM35.7188 27.7313C35.7354 23.6084 30.0187 23.3813 30.0583 21.5396C30.0708 20.9792 30.6042 20.3834 31.7708 20.2313C33.1381 20.1014 34.5151 20.3433 35.7562 20.9313L36.4646 17.6188C35.2563 17.1642 33.9764 16.9293 32.6854 16.925C28.6917 16.925 25.8813 19.05 25.8562 22.0896C25.8312 24.3375 27.8625 25.5896 29.3937 26.3396C30.9688 27.1042 31.4979 27.5959 31.4896 28.2792C31.4792 29.3292 30.2354 29.7896 29.0729 29.8084C27.0417 29.8396 25.8646 29.2605 24.9229 28.823L24.1917 32.2438C25.1354 32.6771 26.8771 33.0563 28.6833 33.073C32.9271 33.073 35.7042 30.9771 35.7188 27.7313ZM46.2625 32.8292H50L46.7396 17.2125H43.2896C42.9208 17.2083 42.5592 17.3153 42.2522 17.5198C41.9452 17.7242 41.707 18.0165 41.5687 18.3584L35.5083 32.8292H39.75L40.5938 30.4959H45.7771L46.2625 32.8292ZM41.7562 27.2959L43.8812 21.4313L45.1062 27.2959H41.7562ZM24.7563 17.2125L21.4167 32.8292H17.375L20.7187 17.2125H24.7563Z" fill="#183864"/>
</svg>
