<svg width="40" height="40" viewBox="0 0 40 40" fill="none" xmlns="http://www.w3.org/2000/svg">
<path d="M16.667 23.3333C16.667 24.2174 17.0182 25.0652 17.6433 25.6904C18.2684 26.3155 19.1163 26.6667 20.0003 26.6667C20.8844 26.6667 21.7322 26.3155 22.3573 25.6904C22.9825 25.0652 23.3337 24.2174 23.3337 23.3333C23.3337 22.4493 22.9825 21.6014 22.3573 20.9763C21.7322 20.3512 20.8844 20 20.0003 20C19.1163 20 18.2684 20.3512 17.6433 20.9763C17.0182 21.6014 16.667 22.4493 16.667 23.3333Z" stroke="#FCFCFC" stroke-width="2.5" stroke-linecap="round" stroke-linejoin="round"/>
<path d="M28.3335 16.6667L25.0002 6.66669M11.6669 16.6667L15.0002 6.66669M8.3352 13.3334H31.6669C32.1475 13.3333 32.6224 13.4372 33.0591 13.6379C33.4958 13.8385 33.884 14.1313 34.197 14.496C34.5099 14.8608 34.7403 15.2889 34.8724 15.751C35.0044 16.2131 35.0349 16.6983 34.9619 17.1734L32.8702 29.0934C32.6886 30.2741 32.0903 31.3508 31.1835 32.1286C30.2768 32.9063 29.1215 33.3337 27.9269 33.3334H12.0735C10.8792 33.3333 9.72433 32.9057 8.81791 32.128C7.91149 31.3503 7.3134 30.2738 7.13186 29.0934L5.0402 17.1734C4.96714 16.6983 4.99768 16.2131 5.12971 15.751C5.26173 15.2889 5.49213 14.8608 5.80511 14.496C6.11808 14.1313 6.50623 13.8385 6.94293 13.6379C7.37964 13.4372 7.85458 13.3333 8.3352 13.3334Z" stroke="#FCFCFC" stroke-width="2.5" stroke-linecap="round" stroke-linejoin="round"/>
</svg>
